<?xml version="1.0" encoding="UTF-8"?>
<svg xmlns="http://www.w3.org/2000/svg" viewBox="0 0 24 24" width="16" height="16">
  <path fill="#3DDC84" d="M17.523 15.343l1.4-2.425a.8.8 0 00-1.385-.8l-1.42 2.458a10.12 10.12 0 01-8.237 0l-1.42-2.458a.8.8 0 00-1.385.8l1.4 2.425A7.927 7.927 0 002 21.6V22a2 2 0 002 2h16a2 2 0 002-2v-.4a7.927 7.927 0 00-4.477-6.257z"/>
  <path fill="#3DDC84" d="M6 10a1 1 0 00-1 1v7a1 1 0 002 0v-7a1 1 0 00-1-1zm12 0a1 1 0 00-1 1v7a1 1 0 002 0v-7a1 1 0 00-1-1zm-6.076-8.212l1.037-1.037a.692.692 0 10-.977-.977l-1.148 1.148A5.995 5.995 0 008.924.788L7.776-.36a.693.693 0 00-.977.977l1.037 1.037A5.991 5.991 0 005 7h14a5.991 5.991 0 00-3.076-5.212zM9 5H8V4h1zm7 0h-1V4h1z"/>
</svg> 