<?xml version="1.0" encoding="UTF-8"?>
<svg xmlns="http://www.w3.org/2000/svg" viewBox="0 0 24 24" width="16" height="16">
  <path fill="#DB4437" d="M12,9.5c1.381,0,2.5,1.119,2.5,2.5c0,1.381-1.119,2.5-2.5,2.5c-1.381,0-2.5-1.119-2.5-2.5C9.5,10.619,10.619,9.5,12,9.5 M12,8c-2.209,0-4,1.791-4,4c0,2.209,1.791,4,4,4s4-1.791,4-4C16,9.791,14.209,8,12,8L12,8z"/>
  <path fill="#0F9D58" d="M12,8c-2.209,0-4,1.791-4,4c0,2.209,1.791,4,4,4c1.412,0,2.649-0.733,3.363-1.842L23.641,6H16C14.56,6,12.971,6.778,12,8L12,8z"/>
  <path fill="#4285F4" d="M12,16c-2.209,0-4-1.791-4-4l0,0L1.359,5.5L0.978,6.114c-1.304,2.087-2.054,4.551-2.054,7.187c0,4.979,2.694,9.331,6.705,11.668l6.209-10.732l0,0C11.444,15.421,10.72,16,10,16H12L12,16z"/>
  <path fill="#FFCD40" d="M12,8c1.86,0,3.42,1.28,3.87,3H24l0,0c0-3.529-1.357-6.738-3.572-9.154L12,12L12,8L12,8z"/>
</svg> 