<?xml version="1.0" encoding="UTF-8"?>
<svg xmlns="http://www.w3.org/2000/svg" viewBox="0 0 24 24" width="16" height="16">
  <path fill="#000000" d="M19.37,12.08c-0.03-3.28,2.7-4.88,2.82-4.95c-1.55-2.26-3.94-2.57-4.77-2.59c-2.01-0.21-3.98,1.18-5.01,1.18 c-1.05,0-2.64-1.16-4.37-1.13c-2.21,0.04-4.29,1.29-5.42,3.26C0.17,12.14,1.76,17.93,4.12,21.31c1.19,1.71,2.59,3.61,4.43,3.55 c1.79-0.07,2.46-1.14,4.61-1.14c2.13,0,2.75,1.14,4.61,1.1c1.91-0.03,3.11-1.71,4.27-3.44c1.38-1.97,1.94-3.91,1.96-4.01 C23.97,17.35,19.4,16.46,19.37,12.08z M16.26,3.9c0.96-1.2,1.63-2.85,1.44-4.52c-1.4,0.06-3.15,0.97-4.16,2.15 c-0.9,1.05-1.7,2.76-1.49,4.38C13.57,6.02,15.27,5.09,16.26,3.9z"/>
</svg> 