<?xml version="1.0" encoding="UTF-8"?>
<svg xmlns="http://www.w3.org/2000/svg" viewBox="0 0 24 24" width="16" height="16">
  <path fill="#000000" d="M12,24c-6.617,0-12-5.383-12-12S5.383,0,12,0s12,5.383,12,12S18.617,24,12,24z M12,1.5C6.21,1.5,1.5,6.21,1.5,12S6.21,22.5,12,22.5S22.5,17.79,22.5,12S17.79,1.5,12,1.5z"/>
  <path fill="#000000" d="M17.505,11.12l-0.012-0.033c0.033-0.137,0.823-3.354-1.405-5.524c-1.481-1.444-3.613-1.689-4.958-1.689c-1.363,0.006-2.628,0.323-3.551,0.896c-1, 0.62-1.731,1.634-2.174,3.01c-0.785,2.444,0.022,5.229,1.978,6.825c1.159,0.946,3.148,2.069,5.663,1.319c1.325-0.396,2.144-0.873,2.472-1.052c0.432,0.188,1.344,0.684,2.755,1.12c2.327,0.72,4.127-0.229,5.166-1.114l-0.03-0.024c0.009-0.006,0.018-0.012,0.027-0.018c1.195-0.972,1.963-2.307,2.283-3.964C24.813,6.783,20.921,4.003,17.505,11.12z M6.376,9.397c0-2.172,1.578-3.931,3.524-3.931s3.524,1.759,3.524,3.931c0,0.174-0.012,0.348-0.036,0.522H6.412C6.388,9.746,6.376,9.571,6.376,9.397z M17.633,15.693c-0.248,0.215-0.506,0.393-0.773,0.534c-0.881,0.45-1.96,0.569-3.026,0.334c-0.827-0.178-1.547-0.525-2.16-0.846c-0.142-0.074-0.275-0.151-0.402-0.228c-0.121,0.068-0.252,0.136-0.39,0.204c-0.63,0.317-1.371,0.64-2.202,0.799c-1.044,0.197-2.097,0.059-2.965-0.388c-0.644-0.345-1.244-0.821-1.78-1.417c-1.454-1.614-1.957-3.944-1.3-6.039c0.353-1.126,0.936-1.954,1.733-2.459c0.715-0.459,1.749-0.773,3.075-0.733c1.209,0.037,2.843,0.205,4.029,1.359c1.797,1.748,1.197,4.579,1.169,4.7c-0.003,0.012-0.006,0.024-0.009,0.036c0.009,0.03,0.018,0.06,0.028,0.09c0.006,0.021,0.012,0.042,0.018,0.063c0.015,0.05,0.029,0.1,0.042,0.15c0.006,0.021,0.012,0.042,0.018,0.062c0.018,0.066,0.036,0.132,0.055,0.198c0.003,0.012,0.007,0.023,0.01,0.035c0.021,0.078,0.042,0.156,0.064,0.234c0.003,0.012,0.006,0.024,0.009,0.036c0.018,0.069,0.037,0.138,0.056,0.207c0.003,0.009,0.005,0.018,0.008,0.028c0.061,0.222,0.124,0.443,0.192,0.665c0.003,0.009,0.006,0.018,0.009,0.028c0.021,0.069,0.042,0.138,0.064,0.207c0.006,0.018,0.012,0.037,0.018,0.056c0.018,0.06,0.037,0.12,0.056,0.18c0.003,0.009,0.006,0.018,0.009,0.027c0.027,0.087,0.055,0.174,0.082,0.261c0.006,0.018,0.012,0.036,0.018,0.054c0.018,0.061,0.037,0.123,0.057,0.184c0.006,0.018,0.012,0.036,0.018,0.053c0.03,0.094,0.061,0.189,0.092,0.283c0,0,0,0.001,0,0.001C16.164,12.454,16.812,14.414,17.633,15.693z"/>
</svg> 